<svg xmlns="http://www.w3.org/2000/svg" xmlns:xlink="http://www.w3.org/1999/xlink" width="1920" zoomAndPan="magnify" viewBox="0 0 1440 809.999993" height="1080" preserveAspectRatio="xMidYMid meet" version="1.0"><defs><clipPath id="ddf4465fa1"><path d="M 535.695312 369 L 708.257812 369 L 708.257812 587.4375 L 535.695312 587.4375 Z M 535.695312 369 " clip-rule="nonzero"/></clipPath><clipPath id="6a497c443a"><path d="M 463.007812 266 L 521 266 L 521 330 L 463.007812 330 Z M 463.007812 266 " clip-rule="nonzero"/></clipPath></defs><path fill="#88a6b5" d="M 531.433594 347.402344 L 519.78125 356.507812 C 524.6875 364.28125 530.253906 372.625 535.871094 380.828125 L 550.363281 369.511719 C 544.019531 361.871094 537.535156 354.246094 531.433594 347.402344 " fill-opacity="1" fill-rule="nonzero"/><g clip-path="url(#ddf4465fa1)"><path fill="#c9741e" d="M 696.980469 551.648438 L 584.636719 412.367188 C 584.636719 412.367188 568.300781 391.148438 550.363281 369.511719 L 535.871094 380.828125 C 551.722656 403.960938 567.566406 425.386719 567.566406 425.386719 L 671.867188 568.167969 C 672.804688 569.464844 673.800781 570.699219 674.898438 571.863281 C 680.09375 577.429688 695.238281 592.265625 703.632812 585.867188 C 717.292969 575.457031 696.980469 551.648438 696.980469 551.648438 " fill-opacity="1" fill-rule="nonzero"/></g><path fill="#5a261d" d="M 519.78125 356.507812 C 519.78125 356.507812 485.558594 354.082031 472.300781 324.75 C 464.921875 308.441406 463.941406 279.566406 468.007812 272.890625 C 479.558594 276.808594 509.265625 302.84375 509.265625 302.84375 C 509.265625 302.84375 523.390625 316.339844 527.578125 326.898438 C 531.769531 337.457031 531.433594 347.402344 531.433594 347.402344 L 519.78125 356.507812 " fill-opacity="1" fill-rule="nonzero"/><g clip-path="url(#6a497c443a)"><path fill="#54bcd9" d="M 467.121094 266.90625 C 467.121094 266.90625 463.328125 270.417969 463.976562 287.042969 C 465 313.085938 462.96875 327.398438 474.097656 325.101562 C 489.058594 322.027344 481.597656 315.261719 487.277344 312.859375 C 492.949219 310.476562 496.636719 334.453125 505.855469 328.710938 C 515.074219 322.964844 501.359375 317.390625 505.46875 313.917969 C 509.570312 310.449219 513.839844 320.796875 518.753906 314.21875 C 523.679688 307.628906 518.625 304.980469 506.136719 295.28125 C 493.65625 285.589844 473.859375 265.046875 467.121094 266.90625 " fill-opacity="1" fill-rule="nonzero"/></g></svg>