<svg xmlns="http://www.w3.org/2000/svg" xmlns:xlink="http://www.w3.org/1999/xlink" width="1920" zoomAndPan="magnify" viewBox="0 0 1440 809.999993" height="1080" preserveAspectRatio="xMidYMid meet" version="1.0"><defs><clipPath id="a1c8ab66d5"><path d="M 432 287.28125 L 1008 287.28125 L 1008 522 L 432 522 Z M 432 287.28125 " clip-rule="nonzero"/></clipPath></defs><path fill="#f3d19c" d="M 592.925781 399.40625 L 575.230469 399.40625 L 575.230469 385.785156 L 592.886719 385.785156 C 598.1875 385.785156 602.488281 381.492188 602.488281 376.183594 C 602.488281 370.875 598.1875 366.585938 592.886719 366.585938 L 565.632812 366.585938 C 560.332031 366.585938 556.03125 370.875 556.03125 376.183594 L 556.03125 441.828125 C 556.03125 447.140625 560.332031 451.429688 565.632812 451.429688 C 570.929688 451.429688 575.230469 447.140625 575.230469 441.828125 L 575.230469 418.609375 L 592.925781 418.609375 C 598.222656 418.609375 602.523438 414.316406 602.523438 409.007812 C 602.523438 403.699219 598.222656 399.40625 592.925781 399.40625 Z M 592.925781 399.40625 " fill-opacity="1" fill-rule="nonzero"/><path fill="#f3d19c" d="M 620.132812 366.585938 C 614.832031 366.585938 610.53125 370.875 610.53125 376.183594 L 610.53125 441.828125 C 610.53125 447.140625 614.832031 451.429688 620.132812 451.429688 C 625.429688 451.429688 629.730469 447.140625 629.730469 441.828125 L 629.730469 376.183594 C 629.730469 370.875 625.429688 366.585938 620.132812 366.585938 Z M 620.132812 366.585938 " fill-opacity="1" fill-rule="nonzero"/><path fill="#f3d19c" d="M 730.378906 366.585938 C 725.078125 366.585938 720.777344 370.875 720.777344 376.183594 L 720.777344 441.828125 C 720.777344 447.140625 725.078125 451.429688 730.378906 451.429688 C 735.675781 451.429688 739.976562 447.140625 739.976562 441.828125 L 739.976562 376.183594 C 739.976562 370.875 735.675781 366.585938 730.378906 366.585938 Z M 730.378906 366.585938 " fill-opacity="1" fill-rule="nonzero"/><path fill="#f3d19c" d="M 874.378906 366.585938 C 869.078125 366.585938 864.777344 370.875 864.777344 376.183594 L 864.777344 399.40625 L 839.375 399.40625 L 839.375 376.183594 C 839.375 370.875 835.074219 366.585938 829.777344 366.585938 C 824.476562 366.585938 820.175781 370.875 820.175781 376.183594 L 820.175781 408.890625 C 820.175781 408.890625 820.15625 408.96875 820.15625 409.007812 C 820.15625 409.046875 820.175781 409.085938 820.175781 409.121094 L 820.175781 441.832031 C 820.175781 447.140625 824.476562 451.429688 829.777344 451.429688 C 835.074219 451.429688 839.375 447.140625 839.375 441.832031 L 839.375 418.609375 L 864.777344 418.609375 L 864.777344 441.832031 C 864.777344 447.140625 869.078125 451.429688 874.378906 451.429688 C 879.675781 451.429688 883.976562 447.140625 883.976562 441.832031 L 883.976562 376.183594 C 883.976562 370.875 879.675781 366.585938 874.378906 366.585938 Z M 874.378906 366.585938 " fill-opacity="1" fill-rule="nonzero"/><path fill="#f3d19c" d="M 697.238281 366.585938 C 691.9375 366.585938 687.636719 370.875 687.636719 376.183594 L 687.636719 392.785156 L 657.398438 368.679688 C 654.507812 366.394531 650.5625 365.933594 647.242188 367.535156 C 643.921875 369.140625 641.808594 372.507812 641.808594 376.183594 L 641.808594 441.828125 C 641.808594 447.140625 646.109375 451.429688 651.40625 451.429688 C 656.707031 451.429688 661.007812 447.140625 661.007812 441.828125 L 661.007812 396.113281 L 687.636719 417.351562 L 687.636719 441.828125 C 687.636719 447.140625 691.9375 451.429688 697.238281 451.429688 C 702.539062 451.429688 706.839844 447.140625 706.839844 441.828125 L 706.839844 376.183594 C 706.839844 370.875 702.539062 366.585938 697.238281 366.585938 Z M 697.238281 366.585938 " fill-opacity="1" fill-rule="nonzero"/><path fill="#f3d19c" d="M 776.285156 376.800781 C 781.199219 376.800781 785.195312 380.792969 785.195312 385.699219 C 785.195312 391.007812 789.496094 395.300781 794.792969 395.300781 C 800.09375 395.300781 804.394531 391.007812 804.394531 385.699219 C 804.394531 370.203125 791.789062 357.601562 776.285156 357.601562 C 760.78125 357.601562 748.183594 370.195312 748.183594 385.699219 C 748.183594 401.203125 760.789062 413.808594 776.285156 413.808594 C 781.199219 413.808594 785.195312 417.800781 785.195312 422.714844 C 785.195312 427.632812 781.199219 431.617188 776.285156 431.617188 C 771.371094 431.617188 767.386719 427.621094 767.386719 422.714844 C 767.386719 417.40625 763.085938 413.117188 757.785156 413.117188 C 752.488281 413.117188 748.183594 417.40625 748.183594 422.714844 C 748.183594 438.210938 760.789062 450.816406 776.285156 450.816406 C 791.777344 450.816406 804.394531 438.21875 804.394531 422.714844 C 804.394531 407.210938 791.789062 394.609375 776.285156 394.609375 C 771.378906 394.609375 767.386719 390.613281 767.386719 385.699219 C 767.386719 380.785156 771.378906 376.800781 776.285156 376.800781 Z M 776.285156 376.800781 " fill-opacity="1" fill-rule="nonzero"/><g clip-path="url(#a1c8ab66d5)"><path fill="#f3d19c" d="M 939.042969 287.058594 L 500.957031 287.058594 C 462.929688 287.058594 432 317.988281 432 356.015625 L 432 453.023438 C 432 491.050781 462.929688 521.980469 500.957031 521.980469 L 939.042969 521.980469 C 977.070312 521.980469 1008 491.050781 1008 453.023438 L 1008 356.015625 C 1008 317.988281 977.070312 287.058594 939.042969 287.058594 Z M 988.800781 453.023438 C 988.800781 480.449219 966.480469 502.78125 939.042969 502.78125 L 500.957031 502.78125 C 473.519531 502.78125 451.199219 480.460938 451.199219 453.023438 L 451.199219 356.015625 C 451.199219 328.589844 473.519531 306.257812 500.957031 306.257812 L 939.042969 306.257812 C 966.480469 306.257812 988.800781 328.578125 988.800781 356.015625 Z M 988.800781 453.023438 " fill-opacity="1" fill-rule="nonzero"/></g><path fill="#f3d19c" d="M 939.042969 319.335938 L 500.957031 319.335938 C 480.738281 319.335938 464.285156 335.789062 464.285156 356.007812 L 464.285156 453.015625 C 464.285156 473.230469 480.738281 489.6875 500.957031 489.6875 L 939.042969 489.6875 C 959.261719 489.6875 975.714844 473.230469 975.714844 453.015625 L 975.714844 356.007812 C 975.714844 335.789062 959.261719 319.335938 939.042969 319.335938 Z M 956.515625 453.023438 C 956.515625 462.660156 948.679688 470.496094 939.042969 470.496094 L 500.957031 470.496094 C 491.320312 470.496094 483.484375 462.660156 483.484375 453.023438 L 483.484375 356.015625 C 483.484375 346.378906 491.320312 338.542969 500.957031 338.542969 L 939.042969 338.542969 C 948.679688 338.542969 956.515625 346.378906 956.515625 356.015625 Z M 956.515625 453.023438 " fill-opacity="1" fill-rule="nonzero"/></svg>